<?xml version="1.0" encoding="UTF-8" standalone="no"?>

<svg
   xmlns:dc="http://purl.org/dc/elements/1.1/"
   xmlns:cc="http://creativecommons.org/ns#"
   xmlns:rdf="http://www.w3.org/1999/02/22-rdf-syntax-ns#"
   xmlns:svg="http://www.w3.org/2000/svg"
   xmlns="http://www.w3.org/2000/svg"
   version="1.1"
      width="160"
   height="120"

   id="svg2">
  <defs
     id="defs4" />
  <metadata
     id="metadata7">
    <rdf:RDF>
      <cc:Work
         rdf:about="">
        <dc:format>image/svg+xml</dc:format>
        <dc:type
           rdf:resource="http://purl.org/dc/dcmitype/StillImage" />
        <dc:title></dc:title>
      </cc:Work>
    </rdf:RDF>
  </metadata>
  <g id="layer1">
	<rect width="10" height="10" x="0" y ="0" id="0" style="fill:#ffffff;fill-opacity:1;stroke:none" />
<rect width="10" height="10" x="10" y ="0" id="1" style="fill:#7f7f7f;fill-opacity:1;stroke:none" />
<rect width="10" height="10" x="20" y ="0" id="2" style="fill:#000000;fill-opacity:1;stroke:none" />
<rect width="10" height="10" x="30" y ="0" id="3" style="fill:#7f7f7f;fill-opacity:1;stroke:none" />
<rect width="10" height="10" x="40" y ="0" id="4" style="fill:#000000;fill-opacity:1;stroke:none" />
<rect width="10" height="10" x="50" y ="0" id="5" style="fill:#7f7f7f;fill-opacity:1;stroke:none" />
<rect width="10" height="10" x="60" y ="0" id="6" style="fill:#ffffff;fill-opacity:1;stroke:none" />
<rect width="10" height="10" x="70" y ="0" id="7" style="fill:#000000;fill-opacity:1;stroke:none" />
<rect width="10" height="10" x="80" y ="0" id="8" style="fill:#7f7f7f;fill-opacity:1;stroke:none" />
<rect width="10" height="10" x="90" y ="0" id="9" style="fill:#ffffff;fill-opacity:1;stroke:none" />
<rect width="10" height="10" x="100" y ="0" id="10" style="fill:#7f7f7f;fill-opacity:1;stroke:none" />
<rect width="10" height="10" x="110" y ="0" id="11" style="fill:#ffffff;fill-opacity:1;stroke:none" />
<rect width="10" height="10" x="120" y ="0" id="12" style="fill:#7f7f7f;fill-opacity:1;stroke:none" />
<rect width="10" height="10" x="130" y ="0" id="13" style="fill:#ffffff;fill-opacity:1;stroke:none" />
<rect width="10" height="10" x="140" y ="0" id="14" style="fill:#000000;fill-opacity:1;stroke:none" />
<rect width="10" height="10" x="150" y ="0" id="15" style="fill:#7f7f7f;fill-opacity:1;stroke:none" />
<rect width="10" height="10" x="0" y ="10" id="16" style="fill:#7f7f7f;fill-opacity:1;stroke:none" />
<rect width="10" height="10" x="10" y ="10" id="17" style="fill:#000000;fill-opacity:1;stroke:none" />
<rect width="10" height="10" x="20" y ="10" id="18" style="fill:#ffffff;fill-opacity:1;stroke:none" />
<rect width="10" height="10" x="30" y ="10" id="19" style="fill:#ffffff;fill-opacity:1;stroke:none" />
<rect width="10" height="10" x="40" y ="10" id="20" style="fill:#7f7f7f;fill-opacity:1;stroke:none" />
<rect width="10" height="10" x="50" y ="10" id="21" style="fill:#000000;fill-opacity:1;stroke:none" />
<rect width="10" height="10" x="60" y ="10" id="22" style="fill:#ffffff;fill-opacity:1;stroke:none" />
<rect width="10" height="10" x="70" y ="10" id="23" style="fill:#7f7f7f;fill-opacity:1;stroke:none" />
<rect width="10" height="10" x="80" y ="10" id="24" style="fill:#ffffff;fill-opacity:1;stroke:none" />
<rect width="10" height="10" x="90" y ="10" id="25" style="fill:#000000;fill-opacity:1;stroke:none" />
<rect width="10" height="10" x="100" y ="10" id="26" style="fill:#000000;fill-opacity:1;stroke:none" />
<rect width="10" height="10" x="110" y ="10" id="27" style="fill:#ffffff;fill-opacity:1;stroke:none" />
<rect width="10" height="10" x="120" y ="10" id="28" style="fill:#7f7f7f;fill-opacity:1;stroke:none" />
<rect width="10" height="10" x="130" y ="10" id="29" style="fill:#000000;fill-opacity:1;stroke:none" />
<rect width="10" height="10" x="140" y ="10" id="30" style="fill:#7f7f7f;fill-opacity:1;stroke:none" />
<rect width="10" height="10" x="150" y ="10" id="31" style="fill:#ffffff;fill-opacity:1;stroke:none" />
<rect width="10" height="10" x="0" y ="20" id="32" style="fill:#ffffff;fill-opacity:1;stroke:none" />
<rect width="10" height="10" x="10" y ="20" id="33" style="fill:#7f7f7f;fill-opacity:1;stroke:none" />
<rect width="10" height="10" x="20" y ="20" id="34" style="fill:#7f7f7f;fill-opacity:1;stroke:none" />
<rect width="10" height="10" x="30" y ="20" id="35" style="fill:#ffffff;fill-opacity:1;stroke:none" />
<rect width="10" height="10" x="40" y ="20" id="36" style="fill:#000000;fill-opacity:1;stroke:none" />
<rect width="10" height="10" x="50" y ="20" id="37" style="fill:#7f7f7f;fill-opacity:1;stroke:none" />
<rect width="10" height="10" x="60" y ="20" id="38" style="fill:#7f7f7f;fill-opacity:1;stroke:none" />
<rect width="10" height="10" x="70" y ="20" id="39" style="fill:#000000;fill-opacity:1;stroke:none" />
<rect width="10" height="10" x="80" y ="20" id="40" style="fill:#7f7f7f;fill-opacity:1;stroke:none" />
<rect width="10" height="10" x="90" y ="20" id="41" style="fill:#000000;fill-opacity:1;stroke:none" />
<rect width="10" height="10" x="100" y ="20" id="42" style="fill:#ffffff;fill-opacity:1;stroke:none" />
<rect width="10" height="10" x="110" y ="20" id="43" style="fill:#7f7f7f;fill-opacity:1;stroke:none" />
<rect width="10" height="10" x="120" y ="20" id="44" style="fill:#ffffff;fill-opacity:1;stroke:none" />
<rect width="10" height="10" x="130" y ="20" id="45" style="fill:#ffffff;fill-opacity:1;stroke:none" />
<rect width="10" height="10" x="140" y ="20" id="46" style="fill:#ffffff;fill-opacity:1;stroke:none" />
<rect width="10" height="10" x="150" y ="20" id="47" style="fill:#7f7f7f;fill-opacity:1;stroke:none" />
<rect width="10" height="10" x="0" y ="30" id="48" style="fill:#7f7f7f;fill-opacity:1;stroke:none" />
<rect width="10" height="10" x="10" y ="30" id="49" style="fill:#ffffff;fill-opacity:1;stroke:none" />
<rect width="10" height="10" x="20" y ="30" id="50" style="fill:#7f7f7f;fill-opacity:1;stroke:none" />
<rect width="10" height="10" x="30" y ="30" id="51" style="fill:#000000;fill-opacity:1;stroke:none" />
<rect width="10" height="10" x="40" y ="30" id="52" style="fill:#ffffff;fill-opacity:1;stroke:none" />
<rect width="10" height="10" x="50" y ="30" id="53" style="fill:#7f7f7f;fill-opacity:1;stroke:none" />
<rect width="10" height="10" x="60" y ="30" id="54" style="fill:#ffffff;fill-opacity:1;stroke:none" />
<rect width="10" height="10" x="70" y ="30" id="55" style="fill:#7f7f7f;fill-opacity:1;stroke:none" />
<rect width="10" height="10" x="80" y ="30" id="56" style="fill:#000000;fill-opacity:1;stroke:none" />
<rect width="10" height="10" x="90" y ="30" id="57" style="fill:#ffffff;fill-opacity:1;stroke:none" />
<rect width="10" height="10" x="100" y ="30" id="58" style="fill:#000000;fill-opacity:1;stroke:none" />
<rect width="10" height="10" x="110" y ="30" id="59" style="fill:#7f7f7f;fill-opacity:1;stroke:none" />
<rect width="10" height="10" x="120" y ="30" id="60" style="fill:#ffffff;fill-opacity:1;stroke:none" />
<rect width="10" height="10" x="130" y ="30" id="61" style="fill:#000000;fill-opacity:1;stroke:none" />
<rect width="10" height="10" x="140" y ="30" id="62" style="fill:#000000;fill-opacity:1;stroke:none" />
<rect width="10" height="10" x="150" y ="30" id="63" style="fill:#ffffff;fill-opacity:1;stroke:none" />
<rect width="10" height="10" x="0" y ="40" id="64" style="fill:#ffffff;fill-opacity:1;stroke:none" />
<rect width="10" height="10" x="10" y ="40" id="65" style="fill:#000000;fill-opacity:1;stroke:none" />
<rect width="10" height="10" x="20" y ="40" id="66" style="fill:#000000;fill-opacity:1;stroke:none" />
<rect width="10" height="10" x="30" y ="40" id="67" style="fill:#ffffff;fill-opacity:1;stroke:none" />
<rect width="10" height="10" x="40" y ="40" id="68" style="fill:#7f7f7f;fill-opacity:1;stroke:none" />
<rect width="10" height="10" x="50" y ="40" id="69" style="fill:#ffffff;fill-opacity:1;stroke:none" />
<rect width="10" height="10" x="60" y ="40" id="70" style="fill:#000000;fill-opacity:1;stroke:none" />
<rect width="10" height="10" x="70" y ="40" id="71" style="fill:#7f7f7f;fill-opacity:1;stroke:none" />
<rect width="10" height="10" x="80" y ="40" id="72" style="fill:#ffffff;fill-opacity:1;stroke:none" />
<rect width="10" height="10" x="90" y ="40" id="73" style="fill:#7f7f7f;fill-opacity:1;stroke:none" />
<rect width="10" height="10" x="100" y ="40" id="74" style="fill:#000000;fill-opacity:1;stroke:none" />
<rect width="10" height="10" x="110" y ="40" id="75" style="fill:#ffffff;fill-opacity:1;stroke:none" />
<rect width="10" height="10" x="120" y ="40" id="76" style="fill:#7f7f7f;fill-opacity:1;stroke:none" />
<rect width="10" height="10" x="130" y ="40" id="77" style="fill:#7f7f7f;fill-opacity:1;stroke:none" />
<rect width="10" height="10" x="140" y ="40" id="78" style="fill:#ffffff;fill-opacity:1;stroke:none" />
<rect width="10" height="10" x="150" y ="40" id="79" style="fill:#000000;fill-opacity:1;stroke:none" />
<rect width="10" height="10" x="0" y ="50" id="80" style="fill:#000000;fill-opacity:1;stroke:none" />
<rect width="10" height="10" x="10" y ="50" id="81" style="fill:#ffffff;fill-opacity:1;stroke:none" />
<rect width="10" height="10" x="20" y ="50" id="82" style="fill:#000000;fill-opacity:1;stroke:none" />
<rect width="10" height="10" x="30" y ="50" id="83" style="fill:#7f7f7f;fill-opacity:1;stroke:none" />
<rect width="10" height="10" x="40" y ="50" id="84" style="fill:#000000;fill-opacity:1;stroke:none" />
<rect width="10" height="10" x="50" y ="50" id="85" style="fill:#ffffff;fill-opacity:1;stroke:none" />
<rect width="10" height="10" x="60" y ="50" id="86" style="fill:#7f7f7f;fill-opacity:1;stroke:none" />
<rect width="10" height="10" x="70" y ="50" id="87" style="fill:#ffffff;fill-opacity:1;stroke:none" />
<rect width="10" height="10" x="80" y ="50" id="88" style="fill:#ffffff;fill-opacity:1;stroke:none" />
<rect width="10" height="10" x="90" y ="50" id="89" style="fill:#000000;fill-opacity:1;stroke:none" />
<rect width="10" height="10" x="100" y ="50" id="90" style="fill:#7f7f7f;fill-opacity:1;stroke:none" />
<rect width="10" height="10" x="110" y ="50" id="91" style="fill:#7f7f7f;fill-opacity:1;stroke:none" />
<rect width="10" height="10" x="120" y ="50" id="92" style="fill:#000000;fill-opacity:1;stroke:none" />
<rect width="10" height="10" x="130" y ="50" id="93" style="fill:#7f7f7f;fill-opacity:1;stroke:none" />
<rect width="10" height="10" x="140" y ="50" id="94" style="fill:#ffffff;fill-opacity:1;stroke:none" />
<rect width="10" height="10" x="150" y ="50" id="95" style="fill:#7f7f7f;fill-opacity:1;stroke:none" />
<rect width="10" height="10" x="0" y ="60" id="96" style="fill:#ffffff;fill-opacity:1;stroke:none" />
<rect width="10" height="10" x="10" y ="60" id="97" style="fill:#7f7f7f;fill-opacity:1;stroke:none" />
<rect width="10" height="10" x="20" y ="60" id="98" style="fill:#ffffff;fill-opacity:1;stroke:none" />
<rect width="10" height="10" x="30" y ="60" id="99" style="fill:#000000;fill-opacity:1;stroke:none" />
<rect width="10" height="10" x="40" y ="60" id="100" style="fill:#ffffff;fill-opacity:1;stroke:none" />
<rect width="10" height="10" x="50" y ="60" id="101" style="fill:#7f7f7f;fill-opacity:1;stroke:none" />
<rect width="10" height="10" x="60" y ="60" id="102" style="fill:#000000;fill-opacity:1;stroke:none" />
<rect width="10" height="10" x="70" y ="60" id="103" style="fill:#000000;fill-opacity:1;stroke:none" />
<rect width="10" height="10" x="80" y ="60" id="104" style="fill:#7f7f7f;fill-opacity:1;stroke:none" />
<rect width="10" height="10" x="90" y ="60" id="105" style="fill:#ffffff;fill-opacity:1;stroke:none" />
<rect width="10" height="10" x="100" y ="60" id="106" style="fill:#000000;fill-opacity:1;stroke:none" />
<rect width="10" height="10" x="110" y ="60" id="107" style="fill:#ffffff;fill-opacity:1;stroke:none" />
<rect width="10" height="10" x="120" y ="60" id="108" style="fill:#7f7f7f;fill-opacity:1;stroke:none" />
<rect width="10" height="10" x="130" y ="60" id="109" style="fill:#ffffff;fill-opacity:1;stroke:none" />
<rect width="10" height="10" x="140" y ="60" id="110" style="fill:#7f7f7f;fill-opacity:1;stroke:none" />
<rect width="10" height="10" x="150" y ="60" id="111" style="fill:#000000;fill-opacity:1;stroke:none" />
<rect width="10" height="10" x="0" y ="70" id="112" style="fill:#ffffff;fill-opacity:1;stroke:none" />
<rect width="10" height="10" x="10" y ="70" id="113" style="fill:#000000;fill-opacity:1;stroke:none" />
<rect width="10" height="10" x="20" y ="70" id="114" style="fill:#7f7f7f;fill-opacity:1;stroke:none" />
<rect width="10" height="10" x="30" y ="70" id="115" style="fill:#000000;fill-opacity:1;stroke:none" />
<rect width="10" height="10" x="40" y ="70" id="116" style="fill:#ffffff;fill-opacity:1;stroke:none" />
<rect width="10" height="10" x="50" y ="70" id="117" style="fill:#000000;fill-opacity:1;stroke:none" />
<rect width="10" height="10" x="60" y ="70" id="118" style="fill:#ffffff;fill-opacity:1;stroke:none" />
<rect width="10" height="10" x="70" y ="70" id="119" style="fill:#7f7f7f;fill-opacity:1;stroke:none" />
<rect width="10" height="10" x="80" y ="70" id="120" style="fill:#ffffff;fill-opacity:1;stroke:none" />
<rect width="10" height="10" x="90" y ="70" id="121" style="fill:#ffffff;fill-opacity:1;stroke:none" />
<rect width="10" height="10" x="100" y ="70" id="122" style="fill:#ffffff;fill-opacity:1;stroke:none" />
<rect width="10" height="10" x="110" y ="70" id="123" style="fill:#000000;fill-opacity:1;stroke:none" />
<rect width="10" height="10" x="120" y ="70" id="124" style="fill:#ffffff;fill-opacity:1;stroke:none" />
<rect width="10" height="10" x="130" y ="70" id="125" style="fill:#000000;fill-opacity:1;stroke:none" />
<rect width="10" height="10" x="140" y ="70" id="126" style="fill:#ffffff;fill-opacity:1;stroke:none" />
<rect width="10" height="10" x="150" y ="70" id="127" style="fill:#000000;fill-opacity:1;stroke:none" />
<rect width="10" height="10" x="0" y ="80" id="128" style="fill:#7f7f7f;fill-opacity:1;stroke:none" />
<rect width="10" height="10" x="10" y ="80" id="129" style="fill:#ffffff;fill-opacity:1;stroke:none" />
<rect width="10" height="10" x="20" y ="80" id="130" style="fill:#000000;fill-opacity:1;stroke:none" />
<rect width="10" height="10" x="30" y ="80" id="131" style="fill:#000000;fill-opacity:1;stroke:none" />
<rect width="10" height="10" x="40" y ="80" id="132" style="fill:#7f7f7f;fill-opacity:1;stroke:none" />
<rect width="10" height="10" x="50" y ="80" id="133" style="fill:#000000;fill-opacity:1;stroke:none" />
<rect width="10" height="10" x="60" y ="80" id="134" style="fill:#ffffff;fill-opacity:1;stroke:none" />
<rect width="10" height="10" x="70" y ="80" id="135" style="fill:#ffffff;fill-opacity:1;stroke:none" />
<rect width="10" height="10" x="80" y ="80" id="136" style="fill:#000000;fill-opacity:1;stroke:none" />
<rect width="10" height="10" x="90" y ="80" id="137" style="fill:#7f7f7f;fill-opacity:1;stroke:none" />
<rect width="10" height="10" x="100" y ="80" id="138" style="fill:#ffffff;fill-opacity:1;stroke:none" />
<rect width="10" height="10" x="110" y ="80" id="139" style="fill:#7f7f7f;fill-opacity:1;stroke:none" />
<rect width="10" height="10" x="120" y ="80" id="140" style="fill:#ffffff;fill-opacity:1;stroke:none" />
<rect width="10" height="10" x="130" y ="80" id="141" style="fill:#7f7f7f;fill-opacity:1;stroke:none" />
<rect width="10" height="10" x="140" y ="80" id="142" style="fill:#7f7f7f;fill-opacity:1;stroke:none" />
<rect width="10" height="10" x="150" y ="80" id="143" style="fill:#ffffff;fill-opacity:1;stroke:none" />
<rect width="10" height="10" x="0" y ="90" id="144" style="fill:#000000;fill-opacity:1;stroke:none" />
<rect width="10" height="10" x="10" y ="90" id="145" style="fill:#ffffff;fill-opacity:1;stroke:none" />
<rect width="10" height="10" x="20" y ="90" id="146" style="fill:#ffffff;fill-opacity:1;stroke:none" />
<rect width="10" height="10" x="30" y ="90" id="147" style="fill:#7f7f7f;fill-opacity:1;stroke:none" />
<rect width="10" height="10" x="40" y ="90" id="148" style="fill:#000000;fill-opacity:1;stroke:none" />
<rect width="10" height="10" x="50" y ="90" id="149" style="fill:#7f7f7f;fill-opacity:1;stroke:none" />
<rect width="10" height="10" x="60" y ="90" id="150" style="fill:#ffffff;fill-opacity:1;stroke:none" />
<rect width="10" height="10" x="70" y ="90" id="151" style="fill:#7f7f7f;fill-opacity:1;stroke:none" />
<rect width="10" height="10" x="80" y ="90" id="152" style="fill:#7f7f7f;fill-opacity:1;stroke:none" />
<rect width="10" height="10" x="90" y ="90" id="153" style="fill:#ffffff;fill-opacity:1;stroke:none" />
<rect width="10" height="10" x="100" y ="90" id="154" style="fill:#7f7f7f;fill-opacity:1;stroke:none" />
<rect width="10" height="10" x="110" y ="90" id="155" style="fill:#000000;fill-opacity:1;stroke:none" />
<rect width="10" height="10" x="120" y ="90" id="156" style="fill:#7f7f7f;fill-opacity:1;stroke:none" />
<rect width="10" height="10" x="130" y ="90" id="157" style="fill:#ffffff;fill-opacity:1;stroke:none" />
<rect width="10" height="10" x="140" y ="90" id="158" style="fill:#000000;fill-opacity:1;stroke:none" />
<rect width="10" height="10" x="150" y ="90" id="159" style="fill:#000000;fill-opacity:1;stroke:none" />
<rect width="10" height="10" x="0" y ="100" id="160" style="fill:#7f7f7f;fill-opacity:1;stroke:none" />
<rect width="10" height="10" x="10" y ="100" id="161" style="fill:#ffffff;fill-opacity:1;stroke:none" />
<rect width="10" height="10" x="20" y ="100" id="162" style="fill:#000000;fill-opacity:1;stroke:none" />
<rect width="10" height="10" x="30" y ="100" id="163" style="fill:#ffffff;fill-opacity:1;stroke:none" />
<rect width="10" height="10" x="40" y ="100" id="164" style="fill:#7f7f7f;fill-opacity:1;stroke:none" />
<rect width="10" height="10" x="50" y ="100" id="165" style="fill:#000000;fill-opacity:1;stroke:none" />
<rect width="10" height="10" x="60" y ="100" id="166" style="fill:#000000;fill-opacity:1;stroke:none" />
<rect width="10" height="10" x="70" y ="100" id="167" style="fill:#ffffff;fill-opacity:1;stroke:none" />
<rect width="10" height="10" x="80" y ="100" id="168" style="fill:#000000;fill-opacity:1;stroke:none" />
<rect width="10" height="10" x="90" y ="100" id="169" style="fill:#7f7f7f;fill-opacity:1;stroke:none" />
<rect width="10" height="10" x="100" y ="100" id="170" style="fill:#7f7f7f;fill-opacity:1;stroke:none" />
<rect width="10" height="10" x="110" y ="100" id="171" style="fill:#000000;fill-opacity:1;stroke:none" />
<rect width="10" height="10" x="120" y ="100" id="172" style="fill:#ffffff;fill-opacity:1;stroke:none" />
<rect width="10" height="10" x="130" y ="100" id="173" style="fill:#7f7f7f;fill-opacity:1;stroke:none" />
<rect width="10" height="10" x="140" y ="100" id="174" style="fill:#7f7f7f;fill-opacity:1;stroke:none" />
<rect width="10" height="10" x="150" y ="100" id="175" style="fill:#ffffff;fill-opacity:1;stroke:none" />
<rect width="10" height="10" x="0" y ="110" id="176" style="fill:#ffffff;fill-opacity:1;stroke:none" />
<rect width="10" height="10" x="10" y ="110" id="177" style="fill:#7f7f7f;fill-opacity:1;stroke:none" />
<rect width="10" height="10" x="20" y ="110" id="178" style="fill:#ffffff;fill-opacity:1;stroke:none" />
<rect width="10" height="10" x="30" y ="110" id="179" style="fill:#7f7f7f;fill-opacity:1;stroke:none" />
<rect width="10" height="10" x="40" y ="110" id="180" style="fill:#000000;fill-opacity:1;stroke:none" />
<rect width="10" height="10" x="50" y ="110" id="181" style="fill:#7f7f7f;fill-opacity:1;stroke:none" />
<rect width="10" height="10" x="60" y ="110" id="182" style="fill:#ffffff;fill-opacity:1;stroke:none" />
<rect width="10" height="10" x="70" y ="110" id="183" style="fill:#000000;fill-opacity:1;stroke:none" />
<rect width="10" height="10" x="80" y ="110" id="184" style="fill:#ffffff;fill-opacity:1;stroke:none" />
<rect width="10" height="10" x="90" y ="110" id="185" style="fill:#000000;fill-opacity:1;stroke:none" />
<rect width="10" height="10" x="100" y ="110" id="186" style="fill:#ffffff;fill-opacity:1;stroke:none" />
<rect width="10" height="10" x="110" y ="110" id="187" style="fill:#ffffff;fill-opacity:1;stroke:none" />
<rect width="10" height="10" x="120" y ="110" id="188" style="fill:#7f7f7f;fill-opacity:1;stroke:none" />
<rect width="10" height="10" x="130" y ="110" id="189" style="fill:#000000;fill-opacity:1;stroke:none" />
<rect width="10" height="10" x="140" y ="110" id="190" style="fill:#ffffff;fill-opacity:1;stroke:none" />
<rect width="10" height="10" x="150" y ="110" id="191" style="fill:#000000;fill-opacity:1;stroke:none" />

  </g>
</svg>
	